Hot.Tub.Time.Machine.mkv
************************

TiTLE......  Hot Tub Time Machine 
YEAR.......  2010
GENRE......  Comedy | Sci-Fi 
iMDB RATE..  User Rating: 7.1/10 (12,770 votes)
iMDB URL...  http://www.imdb.com/title/tt1231587/
*************************************************

Video
Duration                         : 1h 40mn
Overall bit rate                 : 8 859 Kbps
Width                            : 1 920 pixels
Height                           : 1 040 pixels
Display aspect ratio             : 1.857
Frame rate                       : 23.976 fps
Stream size                      : 5.04 GiB (81%)

Audio
Format                           : DTS
Bit rate                         : 1 510 Kbps
Channel(s)                       : 6 channels
Channel positions                : Front: L C R, Surround: L R, LFE
Sampling rate                    : 48.0 KHz
Resolution                       : 24 bits
Stream size                      : 1.06 GiB (17%)
Language                         : English

Subtitles: English
******************
